<mxfile host="app.diagrams.net" modified="2024-05-26T16:05:52.161Z" agent="Mozilla/5.0 (Windows NT 10.0; Win64; x64) AppleWebKit/537.36 (KHTML, like Gecko) Chrome/125.0.0.0 Safari/537.36 Edg/125.0.0.0" version="24.4.4" etag="loqylA6kCGAECmXCPuBm" type="github">
  <diagram name="第 1 页" id="92NCgX1C95x1Z0eG000T">
    <mxGraphModel>
      <root>
        <mxCell id="0" />
        <mxCell id="1" parent="0" />
      </root>
    </mxGraphModel>
  </diagram>
</mxfile>
